<svg xmlns="http://www.w3.org/2000/svg"  viewBox="0 0 48 48" width="96px" height="96px"><path fill="#f58420" d="M4.356,9.977c0,5-0.129,6.21,0.256,10.693c0.078,0.903-0.216,5.369-0.316,6.269	c-0.247,2.218-0.101,4.459,0.046,6.687c0.2,3.044-1.134,7.326,1.663,9.489c1.768,1.367,4.792,1.236,6.964,1.344	c2.172,0.108,6.439-0.18,8.601-0.416c5.605-0.611,9.159-0.358,14.793-0.13c2.056,0.083,4.888,0.352,6.492-0.935	c1.545-1.24,2-3,1.769-5.564c-0.399-4.429,0.114-8.904,0.136-13.351c0.009-1.699,0.098-3.553,0.106-5.253	c0.007-1.371-0.297-4.1-0.319-5.47c-0.02-1.275,0.413-4.556,0.307-5.862c-0.106-1.305-1.108-2.747-2.286-3.32	c-0.502-0.245-1.067-0.315-1.611-0.444c-1.02-0.242-7.57,0.211-8.104,0.264c-5,0.5-5,0-10,0c-1.388,0-5.612,0.028-7,0	c-3.512-0.072-5.396-0.184-6.5,0C6.356,4.477,4.163,6.068,4.356,9.977"/><path fill="#010101" d="M14.062,44.981c-0.411,0-0.788-0.008-1.118-0.024c-0.315-0.016-0.65-0.025-0.997-0.037	c-2.054-0.064-4.61-0.145-6.247-1.41c-2.26-1.746-2.078-4.683-1.917-7.273c0.058-0.924,0.111-1.796,0.06-2.577	c-0.146-2.217-0.296-4.508-0.044-6.775c0.107-0.962,0.386-5.352,0.315-6.171c-0.301-3.5-0.29-5.05-0.271-7.864	c0.006-0.816,0.013-1.743,0.013-2.858C3.679,6.302,5.501,4.113,9.274,3.484c0.899-0.148,2.227-0.115,4.426-0.059	c0.644,0.017,1.362,0.035,2.167,0.052c0.995,0.021,3.46,0.013,5.278,0.005l1.711-0.005c1.925,0,3.096,0.072,4.129,0.136	c1.61,0.1,2.771,0.171,5.821-0.133c0.351-0.036,7.13-0.527,8.269-0.254c0.133,0.031,0.266,0.059,0.399,0.087	c0.435,0.09,0.883,0.184,1.315,0.395c1.342,0.653,2.444,2.257,2.564,3.729c0.063,0.779-0.05,2.149-0.158,3.474	c-0.08,0.973-0.156,1.892-0.147,2.421c0.01,0.617,0.079,1.518,0.151,2.471c0.084,1.107,0.172,2.252,0.168,3.01	c-0.005,0.854-0.029,1.746-0.054,2.638c-0.024,0.885-0.049,1.769-0.053,2.615c-0.008,1.562-0.077,3.148-0.144,4.684	c-0.124,2.837-0.252,5.771,0.005,8.62c0.258,2.856-0.345,4.707-1.953,5.999c-1.608,1.29-4.184,1.169-6.259,1.07l-2.301-0.099	c-4.651-0.2-8.015-0.341-12.985,0.2C19.723,44.747,16.364,44.981,14.062,44.981z M11.12,4.377c-0.723,0-1.267,0.024-1.682,0.094	C6.154,5.019,4.698,6.76,4.855,9.953l0.001,0.024c0,1.124-0.007,2.057-0.013,2.878c-0.019,2.784-0.029,4.318,0.267,7.771	c0.082,0.956-0.217,5.469-0.317,6.368c-0.243,2.179-0.095,4.425,0.048,6.598c0.056,0.846,0,1.749-0.06,2.706	c-0.152,2.457-0.311,4.997,1.53,6.42c1.381,1.067,3.758,1.142,5.667,1.202c0.353,0.011,0.693,0.021,1.016,0.038	c2.128,0.104,6.312-0.173,8.521-0.414c5.049-0.55,8.441-0.404,13.138-0.205l2.305,0.099c1.902,0.089,4.271,0.201,5.586-0.851	c1.337-1.074,1.811-2.608,1.583-5.13c-0.263-2.917-0.133-5.884-0.009-8.754c0.066-1.525,0.136-3.103,0.144-4.646	c0.005-0.853,0.029-1.744,0.054-2.637c0.024-0.885,0.049-1.77,0.053-2.616c0.004-0.717-0.082-1.841-0.165-2.928	c-0.074-0.969-0.144-1.883-0.154-2.531c-0.009-0.578,0.068-1.521,0.15-2.519c0.101-1.225,0.215-2.613,0.159-3.311	c-0.093-1.129-0.974-2.408-2.007-2.911c-0.32-0.156-0.689-0.232-1.08-0.314c-0.144-0.029-0.286-0.06-0.427-0.093	c-0.882-0.211-7.196,0.201-7.938,0.275c-3.13,0.313-4.326,0.239-5.982,0.138c-1.019-0.063-2.173-0.135-4.067-0.135l-1.707,0.005	c-1.827,0.008-4.303,0.017-5.303-0.005c-0.807-0.017-1.527-0.035-2.173-0.052C12.638,4.398,11.8,4.377,11.12,4.377z"/><path fill="#d6e5e5" d="M25.605,37.255c0.608-1.87,2.515-3.736,4.26-4.643c1.352-0.703,3.116-0.824,4.627-0.629	c2.287,0.295,3.082,1.031,4.665,2.118c0.187,0.128,0.447,0.136,0.663,0.069c0.387-0.121,0.56-0.576,0.616-0.978	c0.772-5.536,0.352-8.581,0.501-14.39c0.018-0.696,0.008-2.877-0.178-3.548c-0.165-0.596-0.567-1.097-1.005-1.534	c-2.842-2.839-7.683-3.395-11.095-1.275c-0.642,0.399-1.245,0.892-1.641,1.535c-0.566,0.92-0.655,2.046-0.725,3.125	C25.872,23.659,25.642,30.688,25.605,37.255"/><path fill="#d6e5e5" d="M23.377,37.037c0.364-2.577,0.358-4.918,0.347-7.52c-0.008-1.848-0.087-3.953-0.031-5.8	c0.051-1.686,0.304-4.628,0.211-6.288c-0.125-2.237-0.647-3.661-2.498-4.924c-1.24-0.845-2.366-1.344-4.124-1.424	c-1.567-0.071-2.591,0.008-4.446,0.532c-0.731,0.206-1.985,0.818-2.706,1.391c-1.004,0.797-1.268,1.075-1.389,2.351	c-0.213,2.248,0.28,6.483,0.066,8.731c-0.281,2.963-0.457,5.857-0.371,9.385c0.002,0.095,0.073,0.181,0.148,0.241	c0.113,0.091,0.283,0.121,0.418,0.067c2.366-0.929,4.403-1.662,6.221-1.813C18.468,31.697,22.356,33.945,23.377,37.037"/><path fill="#010101" d="M25.605,37.756c-0.047,0-0.095-0.007-0.141-0.021c-0.214-0.062-0.36-0.26-0.359-0.482	c0.038-6.79,0.276-13.769,0.689-20.181c0.065-1.023,0.147-2.297,0.799-3.354c0.388-0.631,0.978-1.187,1.803-1.698	c3.584-2.226,8.728-1.636,11.712,1.347c0.384,0.383,0.919,0.981,1.133,1.754c0.218,0.787,0.21,3.151,0.196,3.694	c-0.049,1.896-0.037,3.47-0.025,4.992c0.023,3.057,0.044,5.697-0.48,9.454c-0.102,0.723-0.453,1.228-0.963,1.386	c-0.389,0.122-0.796,0.07-1.095-0.134l-0.543-0.378c-1.255-0.881-2.012-1.413-3.902-1.656c-1.402-0.182-2.788-0.273-4.322,0.57l0,0	c-1.878,1.036-4.058,4.44-4.079,4.475C25.934,37.671,25.773,37.756,25.605,37.756z M33.315,11.665c-1.546,0-3.085,0.393-4.392,1.205	c-0.69,0.428-1.174,0.877-1.479,1.372c-0.521,0.846-0.594,1.981-0.652,2.895c-0.379,5.888-0.61,12.254-0.675,18.512	c0.867-1.161,2.214-2.762,3.506-3.474l0,0c1.796-0.991,3.421-0.882,4.933-0.688c2.135,0.275,3.063,0.928,4.349,1.83l0.535,0.372	c0.03,0.02,0.125,0.035,0.23,0.003c0.117-0.036,0.229-0.271,0.271-0.57c0.514-3.683,0.494-6.289,0.471-9.308	c-0.012-1.529-0.023-3.111,0.025-5.024c0.023-0.903-0.012-2.867-0.159-3.402c-0.115-0.414-0.394-0.831-0.877-1.313	C37.82,12.495,35.561,11.665,33.315,11.665z"/><path fill="#010101" d="M23.377,37.537c-0.214,0-0.406-0.137-0.475-0.344c-0.918-2.78-4.473-4.987-7.639-4.729	c-1.808,0.149-3.907,0.928-6.079,1.78c-0.3,0.117-0.66,0.062-0.915-0.145c-0.209-0.168-0.328-0.389-0.333-0.62	c-0.094-3.863,0.136-6.941,0.373-9.441c0.104-1.089,0.033-2.718-0.035-4.294c-0.069-1.611-0.142-3.278-0.031-4.438	c0.137-1.442,0.497-1.84,1.576-2.696c0.805-0.64,2.122-1.267,2.881-1.48c1.97-0.556,3.055-0.62,4.604-0.549	c1.927,0.086,3.146,0.666,4.383,1.51c2.095,1.428,2.592,3.09,2.716,5.308c0.064,1.149-0.031,2.87-0.116,4.389	c-0.04,0.722-0.077,1.398-0.094,1.943c-0.043,1.4-0.017,2.943,0.009,4.436l0.021,1.343c0.036,2.759-0.333,7.372-0.349,7.567	c-0.019,0.237-0.202,0.428-0.438,0.456C23.416,37.536,23.396,37.537,23.377,37.537z M15.759,31.445c2.763,0,5.698,1.585,7.246,3.782	c0.107-1.631,0.24-4.044,0.219-5.704c0,0,0,0,0-0.001l-0.021-1.338c-0.025-1.504-0.052-3.059-0.009-4.483	c0.017-0.552,0.055-1.237,0.096-1.969c0.083-1.492,0.177-3.184,0.116-4.276c-0.13-2.319-0.705-3.464-2.28-4.538	c-1.128-0.77-2.168-1.261-3.865-1.338c-1.467-0.065-2.438-0.009-4.288,0.514c-0.654,0.185-1.855,0.765-2.531,1.301	c-0.92,0.73-1.097,0.903-1.201,2.007c-0.104,1.091-0.033,2.723,0.034,4.301c0.069,1.609,0.142,3.273,0.032,4.431	C9.074,26.57,8.85,29.561,8.933,33.3c2.158-0.877,4.318-1.672,6.249-1.831C15.372,31.452,15.565,31.445,15.759,31.445z M8.937,33.456c0,0.001,0,0.002,0,0.003C8.937,33.458,8.937,33.457,8.937,33.456z"/><path fill="#010101" d="M14.062,44.981c-0.411,0-0.788-0.008-1.118-0.024c-0.315-0.016-0.65-0.025-0.997-0.037	c-2.054-0.064-4.61-0.145-6.247-1.41c-2.26-1.746-2.078-4.683-1.917-7.273c0.058-0.924,0.111-1.796,0.06-2.577	c-0.146-2.217-0.296-4.508-0.044-6.775c0.107-0.962,0.386-5.352,0.315-6.171c-0.301-3.5-0.29-5.05-0.271-7.864	c0.006-0.816,0.013-1.743,0.013-2.858C3.679,6.302,5.501,4.113,9.274,3.484c0.899-0.148,2.227-0.115,4.426-0.059	c0.644,0.017,1.362,0.035,2.167,0.052c0.995,0.021,3.46,0.013,5.278,0.005l1.711-0.005c1.925,0,3.096,0.072,4.129,0.136	c1.61,0.1,2.771,0.171,5.821-0.133c0.351-0.036,7.13-0.527,8.269-0.254c0.133,0.031,0.266,0.059,0.399,0.087	c0.435,0.09,0.883,0.184,1.315,0.395c1.342,0.653,2.444,2.257,2.564,3.729c0.063,0.779-0.05,2.149-0.158,3.474	c-0.08,0.973-0.156,1.892-0.147,2.421c0.01,0.617,0.079,1.518,0.151,2.471c0.084,1.107,0.172,2.252,0.168,3.01	c-0.005,0.854-0.029,1.746-0.054,2.638c-0.024,0.885-0.049,1.769-0.053,2.615c-0.008,1.562-0.077,3.148-0.144,4.684	c-0.124,2.837-0.252,5.771,0.005,8.62c0.258,2.856-0.345,4.707-1.953,5.999c-1.608,1.29-4.184,1.169-6.259,1.07l-2.301-0.099	c-4.651-0.2-8.015-0.341-12.985,0.2C19.723,44.747,16.364,44.981,14.062,44.981z M11.12,4.377c-0.723,0-1.267,0.024-1.682,0.094	C6.154,5.019,4.698,6.76,4.855,9.953l0.001,0.024c0,1.124-0.007,2.057-0.013,2.878c-0.019,2.784-0.029,4.318,0.267,7.771	c0.082,0.956-0.217,5.469-0.317,6.368c-0.243,2.179-0.095,4.425,0.048,6.598c0.056,0.846,0,1.749-0.06,2.706	c-0.152,2.457-0.311,4.997,1.53,6.42c1.381,1.067,3.758,1.142,5.667,1.202c0.353,0.011,0.693,0.021,1.016,0.038	c2.128,0.104,6.312-0.173,8.521-0.414c5.049-0.55,8.441-0.404,13.138-0.205l2.305,0.099c1.902,0.089,4.271,0.201,5.586-0.851	c1.337-1.074,1.811-2.608,1.583-5.13c-0.263-2.917-0.133-5.884-0.009-8.754c0.066-1.525,0.136-3.103,0.144-4.646	c0.005-0.853,0.029-1.744,0.054-2.637c0.024-0.885,0.049-1.77,0.053-2.616c0.004-0.717-0.082-1.841-0.165-2.928	c-0.074-0.969-0.144-1.883-0.154-2.531c-0.009-0.578,0.068-1.521,0.15-2.519c0.101-1.225,0.215-2.613,0.159-3.311	c-0.093-1.129-0.974-2.408-2.007-2.911c-0.32-0.156-0.689-0.232-1.08-0.314c-0.144-0.029-0.286-0.06-0.427-0.093	c-0.882-0.211-7.196,0.201-7.938,0.275c-3.13,0.313-4.326,0.239-5.982,0.138c-1.019-0.063-2.173-0.135-4.067-0.135l-1.707,0.005	c-1.827,0.008-4.303,0.017-5.303-0.005c-0.807-0.017-1.527-0.035-2.173-0.052C12.638,4.398,11.8,4.377,11.12,4.377z"/></svg>